<?xml version="1.0" encoding="UTF-8"?>
<svg version="1.1" xmlns="http://www.w3.org/2000/svg" width="242" height="300">
<path d="M0 0 C0.7988562 -0.00073517 1.5977124 -0.00147034 2.42077637 -0.00222778 C21.80561653 0.04461074 38.31403629 3.78946183 55.6875 12.4375 C57.17636719 13.16259766 57.17636719 13.16259766 58.6953125 13.90234375 C86.39128739 28.14486075 107.13134356 54.00223993 116.7121582 83.41455078 C116.930896 84.10274902 117.14963379 84.79094727 117.375 85.5 C117.57762451 86.13663574 117.78024902 86.77327148 117.98901367 87.42919922 C118.59712196 89.42273904 119.15340574 91.42288415 119.6875 93.4375 C119.87658936 94.13496338 120.06567871 94.83242676 120.26049805 95.55102539 C122.22147586 103.84097331 122.12837883 112.28025058 122.125 120.75 C122.12610275 121.9482843 122.12610275 121.9482843 122.12722778 123.17077637 C122.05770149 151.94529653 112.72570181 178.53450211 93.6875 200.4375 C93.00042969 201.25734375 92.31335938 202.0771875 91.60546875 202.921875 C72.10601716 225.54826568 42.44886007 240.95305052 12.5625 243.3125 C-25.1588712 244.95255962 -55.94301313 234.03334303 -84.55078125 209.51953125 C-100.15889554 194.88086505 -112.08094553 174.11668508 -117.3125 153.4375 C-117.69656006 151.97896606 -117.69656006 151.97896606 -118.08837891 150.4909668 C-120.40745173 140.88190302 -120.87143567 131.72075475 -120.8125 121.875 C-120.81073761 121.08613403 -120.80897522 120.29726807 -120.80715942 119.48449707 C-120.71135236 100.20704284 -116.91076185 83.71096563 -108.3125 66.4375 C-107.82910156 65.44492188 -107.34570312 64.45234375 -106.84765625 63.4296875 C-92.60513925 35.73371261 -66.74776007 14.99365644 -37.33544922 5.4128418 C-36.64725098 5.194104 -35.95905273 4.97536621 -35.25 4.75 C-34.61336426 4.54737549 -33.97672852 4.34475098 -33.32080078 4.13598633 C-31.32726096 3.52787804 -29.32711585 2.97159426 -27.3125 2.4375 C-26.61503662 2.24841064 -25.91757324 2.05932129 -25.19897461 1.86450195 C-16.90902669 -0.09647586 -8.46974942 -0.00337883 0 0 Z " fill="#FAFBFC" transform="translate(120.3125,-0.43749999999999994)"/>
<path d="M0 0 C8.63192729 -0.13922633 17.26346618 -0.24573399 25.89627266 -0.31087303 C29.90521115 -0.3421423 33.91337965 -0.38453146 37.921875 -0.45263672 C41.79284059 -0.5179912 45.66306724 -0.55373917 49.53454208 -0.56926346 C51.0089773 -0.5803214 52.48337357 -0.60191629 53.95749283 -0.63438034 C56.02869189 -0.67816566 58.09686715 -0.68392609 60.16845703 -0.68115234 C61.93384323 -0.70113785 61.93384323 -0.70113785 63.7348938 -0.7215271 C67 0 67 0 69.46643066 2.9942627 C72.57448142 6.40630328 75.27445254 6.52479677 79.79574585 6.75949097 C82.65456058 6.81596044 85.50955437 6.79767354 88.36865234 6.77294922 C89.94588735 6.78112405 91.52311059 6.79192878 93.10031128 6.80516052 C97.37279127 6.83357201 101.64449971 6.82525302 105.91701841 6.81029272 C110.38540391 6.80090829 114.85360168 6.8253674 119.32192993 6.84622192 C127.77913465 6.88055856 136.23606895 6.88450016 144.69332945 6.87749684 C154.32335539 6.87100414 163.95319148 6.89843354 173.58316112 6.92869925 C193.38879513 6.99018644 213.1942809 7.0091168 233 7 C230.45810302 23.24713325 220.79796216 38.90331387 210 51 C208.93652344 52.26070312 208.93652344 52.26070312 207.8515625 53.546875 C188.40190115 76.15622863 158.70351169 91.5201175 128.875 93.875 C91.1536288 95.51505962 60.36948687 84.59584303 31.76171875 60.08203125 C18.03809446 47.21080599 3.86990668 26.6275359 0 8 C-0.06833728 5.33152105 -0.02273112 2.66988841 0 0 Z " fill="#0C9B0B" transform="translate(4,149)"/>
<path d="M0 0 C79.86 0 159.72 0 242 0 C242 17.25506757 242 17.25506757 240 24.9375 C239.80921875 25.72833984 239.6184375 26.51917969 239.421875 27.33398438 C238.96310676 29.22640337 238.48395666 31.11386535 238 33 C217.11170336 33.009555 196.22369541 32.98496142 175.33549309 32.9197216 C165.63669077 32.89022553 155.93810767 32.87190159 146.23925781 32.87988281 C137.78564324 32.88681098 129.33236789 32.87277269 120.87883675 32.83356392 C116.40269806 32.81353494 111.9270921 32.80400118 107.45092392 32.81957626 C103.23665916 32.83390874 99.0234122 32.82018239 94.80927849 32.78504753 C93.26376217 32.77708691 91.71815394 32.77932782 90.17267418 32.79260826 C78.33059217 32.88575252 78.33059217 32.88575252 74.95703316 30.64003181 C73.58696367 29.13839592 72.28913127 27.57166832 71 26 C67.71464821 25.10794782 67.71464821 25.10794782 64.16845703 25.22705078 C63.51409164 25.21642105 62.85972626 25.20579132 62.18553162 25.19483948 C60.04216085 25.16693694 57.90127934 25.18080422 55.7578125 25.1953125 C54.26420963 25.18405443 52.77062444 25.1701703 51.27706909 25.15377808 C47.36094716 25.11781057 43.44560701 25.1173573 39.52935791 25.12445068 C35.52724308 25.12536503 31.525419 25.09248473 27.5234375 25.0625 C19.68218407 25.00870433 11.84143326 24.99244775 4 25 C3.67 26.32 3.34 27.64 3 29 C2.47830885 26.98465742 1.98430231 24.96215272 1.5 22.9375 C1.2215625 21.81214844 0.943125 20.68679687 0.65625 19.52734375 C-0.2780312 13.08191569 0 6.51278928 0 0 Z " fill="#FCFDFC" transform="translate(0,124)"/>
<path d="M0 0 C0.7988562 -0.00073517 1.5977124 -0.00147034 2.42077637 -0.00222778 C21.80561653 0.04461074 38.31403629 3.78946183 55.6875 12.4375 C57.17636719 13.16259766 57.17636719 13.16259766 58.6953125 13.90234375 C75.61598807 22.6037168 89.92249265 35.86158229 100.6875 51.4375 C100.6875 51.7675 100.6875 52.0975 100.6875 52.4375 C88.23034923 52.5536512 75.77332855 52.64234597 63.31574535 52.69656086 C57.53036986 52.7225891 51.74536647 52.75786354 45.96020508 52.81469727 C40.37103459 52.86925828 34.78222071 52.89897142 29.19280434 52.91188622 C27.06665755 52.92108291 24.94052899 52.93904159 22.81453514 52.96615028 C2.45913314 53.21524254 2.45913314 53.21524254 -7.3125 47.4375 C-19.34532555 43.23117043 -32.7173605 44.60888341 -44.3125 49.4375 C-44.96420166 49.95054688 -45.61590332 50.46359375 -46.28735352 50.9921875 C-50.93899552 53.21458445 -55.43214015 52.80577637 -60.51953125 52.73046875 C-61.60006271 52.72622391 -62.68059418 52.72197906 -63.79386902 52.71760559 C-67.23783506 52.70084129 -70.68121144 52.66319226 -74.125 52.625 C-76.46288216 52.6099503 -78.80077351 52.59626239 -81.13867188 52.58398438 C-86.86348172 52.55094511 -92.58794872 52.50076766 -98.3125 52.4375 C-97.45088738 48.17291802 -95.23118557 45.53967213 -92.4375 42.3125 C-91.94282227 41.73846436 -91.44814453 41.16442871 -90.93847656 40.57299805 C-74.06297148 21.32454227 -52.03875198 8.70959912 -27.3125 2.4375 C-26.62373779 2.25276123 -25.93497559 2.06802246 -25.2253418 1.87768555 C-16.9230315 -0.08899845 -8.48273417 -0.00338401 0 0 Z " fill="#F6F8FB" transform="translate(120.3125,-0.43749999999999994)"/>
<path d="M0 0 C25.74 0 51.48 0 78 0 C76.29103596 3.41792807 75.73751206 4.5167254 73.015625 6.734375 C72.4179834 7.22196289 71.8203418 7.70955078 71.20458984 8.21191406 C53.79095769 21.91487216 34.09269372 31.63238834 12 35 C11.19433594 35.12890625 10.38867188 35.2578125 9.55859375 35.390625 C-17.07821766 38.81600176 -48.34949329 33.91548111 -70.62890625 18.1640625 C-71.30759766 17.58785156 -71.30759766 17.58785156 -72 17 C-72 16.67 -72 16.34 -72 16 C-43.62 15.67 -15.24 15.34 14 15 C9.38 10.38 4.76 5.76 0 1 C0 0.67 0 0.34 0 0 Z " fill="#069905" transform="translate(128,207)"/>
<path d="M0 0 C8.63192729 -0.13922633 17.26346618 -0.24573399 25.89627266 -0.31087303 C29.90521115 -0.3421423 33.91337965 -0.38453146 37.921875 -0.45263672 C41.79284059 -0.5179912 45.66306724 -0.55373917 49.53454208 -0.56926346 C51.0089773 -0.5803214 52.48337357 -0.60191629 53.95749283 -0.63438034 C56.02869189 -0.67816566 58.09686715 -0.68392609 60.16845703 -0.68115234 C61.93384323 -0.70113785 61.93384323 -0.70113785 63.7348938 -0.7215271 C67 0 67 0 69.46643066 2.9942627 C72.57448142 6.40630328 75.27445254 6.52479677 79.79574585 6.75949097 C82.65456058 6.81596044 85.50955437 6.79767354 88.36865234 6.77294922 C89.94588735 6.78112405 91.52311059 6.79192878 93.10031128 6.80516052 C97.37279127 6.83357201 101.64449971 6.82525302 105.91701841 6.81029272 C110.38540391 6.80090829 114.85360168 6.8253674 119.32192993 6.84622192 C127.77913465 6.88055856 136.23606895 6.88450016 144.69332945 6.87749684 C154.32335539 6.87100414 163.95319148 6.89843354 173.58316112 6.92869925 C193.38879513 6.99018644 213.1942809 7.0091168 233 7 C232.34877894 11.18893544 231.42755093 15.0028574 230 19 C229.67 18.34 229.34 17.68 229 17 C154.75 17 80.5 17 4 17 C-0.5 6.875 -0.5 6.875 0 0 Z " fill="#079806" transform="translate(4,149)"/>
<path d="M0 0 C1.06185515 -0.02016672 1.06185515 -0.02016672 2.14516193 -0.04074085 C4.50580128 -0.0792672 6.86509671 -0.08233889 9.22602844 -0.08517456 C10.9233536 -0.10505753 12.62065634 -0.12693908 14.31793213 -0.15066528 C18.9215062 -0.20759006 23.52467536 -0.23170768 28.12855887 -0.24632883 C31.0082188 -0.25656028 33.88777262 -0.2731504 36.7673893 -0.29183578 C46.8236317 -0.35604642 56.87955473 -0.39113268 66.93598938 -0.40255737 C76.29356314 -0.41405592 85.64894898 -0.49314085 95.00583619 -0.60302746 C103.05199308 -0.69419794 111.09742544 -0.73502265 119.14409477 -0.73775089 C123.9446852 -0.74037888 128.74299899 -0.76354509 133.54305077 -0.83856583 C138.0628029 -0.90767646 142.57845016 -0.91385132 147.09850502 -0.87311554 C148.75008231 -0.86873393 150.40189747 -0.88627182 152.052948 -0.92821121 C165.10032441 -1.23941278 165.10032441 -1.23941278 170.21297646 3.58151627 C173.81170577 7.51008215 177.04730732 11.590332 178.7467804 16.68875122 C166.28962963 16.80490242 153.83260895 16.89359719 141.37502575 16.94781208 C135.58965025 16.97384032 129.80464686 17.00911476 124.01948547 17.06594849 C118.43031499 17.1205095 112.84150111 17.15022264 107.25208473 17.16313744 C105.12593795 17.17233413 102.99980938 17.19029281 100.87381554 17.2174015 C80.51841353 17.46649376 80.51841353 17.46649376 70.7467804 11.68875122 C58.71395484 7.48242165 45.34191989 8.86013463 33.7467804 13.68875122 C33.09507874 14.2017981 32.44337708 14.71484497 31.77192688 15.24343872 C27.12028488 17.46583567 22.62714024 17.05702759 17.53974915 16.98171997 C16.45921768 16.97747513 15.37868622 16.97323029 14.26541138 16.96885681 C10.82144534 16.95209251 7.37806895 16.91444348 3.9342804 16.87625122 C1.59639823 16.86120152 -0.74149312 16.84751361 -3.07939148 16.8352356 C-8.80420132 16.80219634 -14.52866833 16.75201888 -20.2532196 16.68875122 C-19.53872003 13.5102336 -18.73161425 11.71275353 -16.5657196 9.25125122 C-16.08747742 8.69566528 -15.60923523 8.14007935 -15.11650085 7.56765747 C-10.01544461 2.42382507 -7.48270135 0.0727095 0 0 Z " fill="#0233C9" transform="translate(42.25321960449219,35.311248779296875)"/>
<path d="M0 0 C33 0 66 0 100 0 C97.33081918 5.33836164 95.01171669 9.57204454 90 13 C84.04100117 14.25853128 78.21867872 14.05148211 72.15625 13.87890625 C70.41893829 13.86209998 68.68158365 13.84929834 66.94421387 13.84031677 C62.39253982 13.80610925 57.84349039 13.7178468 53.29284668 13.61798096 C48.64090477 13.52556837 43.98853462 13.48473586 39.3359375 13.43945312 C30.22281115 13.34320793 21.11162462 13.1898016 12 13 C12.63615234 13.62829712 12.63615234 13.62829712 13.28515625 14.26928711 C15.19267849 16.15610959 17.09637933 18.04674163 19 19.9375 C19.66773438 20.59685547 20.33546875 21.25621094 21.0234375 21.93554688 C21.65507812 22.56396484 22.28671875 23.19238281 22.9375 23.83984375 C23.52402344 24.42113037 24.11054688 25.00241699 24.71484375 25.60131836 C26 27 26 27 26 28 C14.73446719 28.34046742 3.46884319 28.63044539 -7.79957962 28.85746098 C-13.03307774 28.96445173 -18.26500662 29.08827108 -23.49707031 29.25170898 C-28.55420625 29.40904408 -33.61054346 29.52065779 -38.66945648 29.60171318 C-40.59136619 29.64032958 -42.51302867 29.69492807 -44.43399811 29.76637459 C-55.60889514 30.17030503 -62.98312707 30.07816743 -71.62908936 22.33616638 C-72.41148987 21.56523148 -73.19389038 20.79429657 -74 20 C-75.57552706 18.65745141 -77.15744518 17.32230532 -78.75 16 C-79.85786122 15.0272438 -80.95135005 14.03631289 -82 13 C-82 12.67 -82 12.34 -82 12 C-36.955 11.505 -36.955 11.505 9 11 C4.545 6.545 4.545 6.545 0 2 C0 1.34 0 0.68 0 0 Z " fill="#F9FCF9" transform="translate(117,195)"/>
<path d="M0 0 C74.25 0 148.5 0 225 0 C224 6 224 6 223 8 C156.67 8.495 156.67 8.495 89 9 C89.99 10.485 89.99 10.485 91 12 C62.62 12 34.24 12 5 12 C0 2 0 2 0 0 Z " fill="#059705" transform="translate(8,166)"/>
<path d="M0 0 C44.22 0 88.44 0 134 0 C132 6 132 6 131 8 C90.41 8 49.82 8 8 8 C9.98 10.64 11.96 13.28 14 16 C2.5004246 16.33938533 -8.99924529 16.62966477 -20.50160408 16.85746098 C-25.8428507 16.96478047 -31.182594 17.08892622 -36.52246094 17.25170898 C-41.67683671 17.40821506 -46.83044876 17.52028097 -51.98653793 17.60171318 C-53.95246886 17.64054515 -55.91815203 17.69532915 -57.88318253 17.76637459 C-73.26416709 18.30719169 -73.26416709 18.30719169 -77.5355835 15.09054565 C-80.03755676 11.49053999 -80.93888373 8.24446509 -82 4 C-40.42 3.505 -40.42 3.505 2 3 C1.01 1.515 1.01 1.515 0 0 Z " fill="#F7FCF7" transform="translate(96,174)"/>
<path d="M0 0 C0.7988562 -0.00073517 1.5977124 -0.00147034 2.42077637 -0.00222778 C26.42654374 0.05577604 45.95548088 6.44631097 66.6875 18.4375 C66.6875 19.0975 66.6875 19.7575 66.6875 20.4375 C23.4575 20.4375 -19.7725 20.4375 -64.3125 20.4375 C-62.0592367 15.93097339 -62.0592367 15.93097339 -58.5234375 14.25390625 C-57.75443115 13.88595947 -56.9854248 13.5180127 -56.19311523 13.13891602 C-55.36626221 12.76307373 -54.53940918 12.38723145 -53.6875 12 C-52.83808838 11.60675537 -51.98867676 11.21351074 -51.11352539 10.80834961 C-43.37052445 7.30771296 -35.54939031 4.54107506 -27.3125 2.4375 C-26.62663818 2.25421143 -25.94077637 2.07092285 -25.23413086 1.88208008 C-16.92769983 -0.08650624 -8.48706353 -0.00338574 0 0 Z " fill="#0636CA" transform="translate(120.3125,-0.43749999999999994)"/>
<path d="M0 0 C4.95 0 9.9 0 15 0 C15.40992187 1.46953125 15.81984375 2.9390625 16.2421875 4.453125 C16.7862475 6.38547604 17.33052996 8.31776446 17.875 10.25 C18.14441406 11.21808594 18.41382812 12.18617188 18.69140625 13.18359375 C18.95566406 14.11816406 19.21992187 15.05273438 19.4921875 16.015625 C19.85352783 17.30388184 19.85352783 17.30388184 20.22216797 18.61816406 C20.96320281 20.88732161 21.87330181 22.8996645 23 25 C23.176521 24.31373535 23.35304199 23.6274707 23.53491211 22.92041016 C24.33344535 19.82133442 25.13542849 16.72316179 25.9375 13.625 C26.21529297 12.54476563 26.49308594 11.46453125 26.77929688 10.3515625 C27.04677734 9.3203125 27.31425781 8.2890625 27.58984375 7.2265625 C27.83597412 6.27346191 28.08210449 5.32036133 28.33569336 4.33837891 C29 2 29 2 30 0 C34.62 0 39.24 0 44 0 C44 15.18 44 30.36 44 46 C41.03 46 38.06 46 35 46 C34.505 33.625 34.505 33.625 34 21 C32.06657568 28.852447 32.06657568 28.852447 30.14086914 36.70678711 C29.89973389 37.6788208 29.65859863 38.65085449 29.41015625 39.65234375 C29.16402588 40.65257568 28.91789551 41.65280762 28.66430664 42.68334961 C28 45 28 45 27 46 C25.48071962 46.07179964 23.95832518 46.08392007 22.4375 46.0625 C21.61121094 46.05347656 20.78492187 46.04445313 19.93359375 46.03515625 C19.29550781 46.02355469 18.65742187 46.01195312 18 46 C15.06837771 37.7914576 13.06258027 29.46369147 11 21 C10.67 29.25 10.34 37.5 10 46 C6.7 46 3.4 46 0 46 C0 30.82 0 15.64 0 0 Z " fill="#000000" transform="translate(74,254)"/>
<path d="M0 0 C9.7442238 -0.04627664 19.48842159 -0.08184536 29.23273277 -0.10362434 C33.7570826 -0.11407551 38.28135741 -0.1282589 42.80566406 -0.15087891 C47.16931524 -0.17255993 51.53289413 -0.18455858 55.896595 -0.18975449 C57.56402347 -0.19345879 59.23144785 -0.20069207 60.89884567 -0.21146011 C63.22871295 -0.2259122 65.55827894 -0.22798061 67.88818359 -0.22705078 C68.58229843 -0.23424133 69.27641327 -0.24143188 69.99156189 -0.24884033 C74.77189568 -0.22810432 74.77189568 -0.22810432 77 2 C79.7770324 2.31580205 79.7770324 2.31580205 83.08694458 2.2784729 C84.38547363 2.28963638 85.68400269 2.30079987 87.0218811 2.31230164 C88.46917696 2.31466684 89.91647313 2.31684245 91.36376953 2.31884766 C92.88129209 2.32814147 94.39880951 2.33830932 95.9163208 2.34928894 C100.04415897 2.37666475 104.17196287 2.3917607 108.29986811 2.40471697 C112.61074933 2.42031447 116.92156022 2.44711538 121.23239136 2.4727478 C129.39922043 2.51959565 137.56606266 2.55631062 145.73295772 2.58942068 C155.0291221 2.62759972 164.32521596 2.67702086 173.62132096 2.72740483 C192.74749574 2.83081397 211.87371352 2.92004507 231 3 C230.34 5.31 229.68 7.62 229 10 C228.67 9.34 228.34 8.68 228 8 C153.75 8 79.5 8 3 8 C0 2 0 2 0 0 Z " fill="#FAFDF9" transform="translate(5,158)"/>
<path d="M0 0 C6.249375 -0.0928125 6.249375 -0.0928125 12.625 -0.1875 C13.92775879 -0.21481201 15.23051758 -0.24212402 16.57275391 -0.27026367 C23.5504482 -0.32049789 28.1752158 0.02881571 33.8203125 4.4140625 C36.11584959 7.50011568 36.13817219 11.25619151 36 15 C34.5625 17.9375 34.5625 17.9375 33 20 C32.77011494 22.36278736 32.77011494 22.36278736 35.5 24.625 C38.03082879 27.58844909 38.70867979 29.98093975 38.41015625 33.9765625 C37.67406023 37.60796951 36.45884779 40.22400579 34 43 C26.94220512 46.59548041 20.29032766 46.3531373 12.5 46.1875 C8.375 46.125625 4.25 46.06375 0 46 C0 30.82 0 15.64 0 0 Z M10 9 C10 11.97 10 14.94 10 18 C11.91595968 18.08133791 13.83291932 18.13934367 15.75 18.1875 C16.81734375 18.22230469 17.8846875 18.25710938 18.984375 18.29296875 C22.30027855 17.97082786 23.59016673 17.22851086 26 15 C25.62095792 11.70924004 25.62095792 11.70924004 24 9 C21.64686445 8.92728259 19.29166332 8.91629132 16.9375 8.9375 C15.64714844 8.94652344 14.35679688 8.95554687 13.02734375 8.96484375 C12.02832031 8.97644531 11.02929688 8.98804688 10 9 Z M10 26 C10 29.63 10 33.26 10 37 C12.43868168 37.1079859 14.87259133 37.18726589 17.3125 37.25 C18.34793945 37.30027344 18.34793945 37.30027344 19.40429688 37.3515625 C23.62007441 37.43499947 23.62007441 37.43499947 27.01171875 35.1484375 C28.25986933 32.98256888 28.25986933 32.98256888 27.5 30.375 C25.60685857 27.37752607 24.34941948 27.03931211 21 26 C18.10348171 25.76028911 18.10348171 25.76028911 15.1875 25.875 C12.6196875 25.936875 12.6196875 25.936875 10 26 Z " fill="#000000" transform="translate(30,254)"/>
<path d="M0 0 C3.16934172 2.6298793 5.57038605 5.10105288 7 9 C7 9.99 7 10.98 7 12 C3.6419424 12.65857052 0.42702053 13.14169916 -3 13 C-6 10.625 -6 10.625 -8 8 C-11.49979425 6.25010287 -15.30172402 7.02607679 -19 8 C-22.12734281 10.97097567 -23.76433545 13.66148258 -24.203125 18.015625 C-24.31759634 23.47209233 -23.90784893 27.30992107 -21 32 C-16.93120474 34.68540487 -13.9159536 35.29346867 -9.1875 34.5625 C-6.90407014 34.03604317 -6.90407014 34.03604317 -5 33 C-3.30834699 30.01716843 -3.30834699 30.01716843 -3 27 C-6.3 27 -9.6 27 -13 27 C-13 24.36 -13 21.72 -13 19 C-6.4 19 0.2 19 7 19 C7.2475 23.5478125 7.2475 23.5478125 7.5 28.1875 C7.57283203 29.13391357 7.64566406 30.08032715 7.72070312 31.05541992 C7.78690204 33.57017783 7.7164299 35.58043065 7 38 C1.14295779 43.79853865 -6.0535538 44.30116789 -13.87231445 44.31689453 C-20.46325535 44.1961513 -24.69115393 43.04379638 -29.51171875 38.609375 C-35.4158621 32.18079484 -35.4467801 24.93602808 -35.30859375 16.63671875 C-34.74666904 10.01454274 -32.46030234 6.12906347 -27.6875 1.625 C-19.48821676 -4.79486433 -9.04094033 -4.34793313 0 0 Z " fill="#000000" transform="translate(205,256)"/>
<path d="M0 0 C3.63 0 7.26 0 11 0 C11.33 5.61 11.66 11.22 12 17 C12.99 15.865625 13.98 14.73125 15 13.5625 C15.97259766 12.48162109 15.97259766 12.48162109 16.96484375 11.37890625 C19.03713565 9.03868304 19.03713565 9.03868304 20.75390625 6.46484375 C23.74658264 2.38627182 25.47342791 0.2387842 30.62109375 -0.56640625 C34.12561521 -0.56287702 37.51939335 -0.39596789 41 0 C40.21654285 1.17219543 39.42297164 2.33763668 38.625 3.5 C38.18414062 4.1496875 37.74328125 4.799375 37.2890625 5.46875 C36.86367187 5.9740625 36.43828125 6.479375 36 7 C35.34 7 34.68 7 34 7 C33.79375 7.53625 33.5875 8.0725 33.375 8.625 C31.71875241 11.48579129 29.63371516 13.29225485 27.14453125 15.4375 C26.76683594 15.953125 26.38914063 16.46875 26 17 C26.46868038 19.95442227 27.52363589 22.13310857 29.109375 24.64453125 C29.53476563 25.32193359 29.96015625 25.99933594 30.3984375 26.69726562 C30.84445313 27.39529297 31.29046875 28.09332031 31.75 28.8125 C32.18054688 29.49892578 32.61109375 30.18535156 33.0546875 30.89257812 C35.21251806 34.30698965 37.43677413 37.63107499 39.828125 40.88671875 C42 44 42 44 42 46 C37.44226034 46.81288954 33.52139388 47.11741542 29 46 C25.34513036 42.08647805 23.30225028 37.83699382 21 33 C20.43539062 32.07574219 19.87078125 31.15148437 19.2890625 30.19921875 C18 28 18 28 18 26 C15.15496842 27.57384726 13.80716201 28.36497606 12 31 C11.36418901 34.70465873 11.18729052 38.25961618 11.10546875 42.015625 C11 45 11 45 10 46 C6.7 46 3.4 46 0 46 C0 30.82 0 15.64 0 0 Z " fill="#000000" transform="translate(126,254)"/>
<path d="M0 0 C25.74 0 51.48 0 78 0 C74.44164376 7.11671248 68.15549954 12.53991157 61 16 C54.47635088 17.72415654 47.77796337 17.52837862 41.08178711 17.28979492 C38.03984667 17.18673249 35.010235 17.1872347 31.96679688 17.20117188 C30.01032772 17.17529474 28.05392492 17.14360133 26.09765625 17.10546875 C24.7536953 17.10319527 24.7536953 17.10319527 23.38258362 17.10087585 C16.28836273 16.78273977 12.80485518 14.05183267 8 9 C7.1646875 8.20851562 6.329375 7.41703125 5.46875 6.6015625 C4.49421875 5.62316406 4.49421875 5.62316406 3.5 4.625 C2.8296875 3.95726562 2.159375 3.28953125 1.46875 2.6015625 C0 1 0 1 0 0 Z " fill="#049804" transform="translate(128,207)"/>
<path d="M0 0 C79.86 0 159.72 0 242 0 C242 1.32 242 2.64 242 4 C162.14 4 82.28 4 0 4 C0 2.68 0 1.36 0 0 Z " fill="#676767" transform="translate(0,120)"/>
<path d="M0 0 C30.03 0 60.06 0 91 0 C96 9 96 9 96 12 C88.45623848 12.12714788 80.912755 12.21449784 73.36816406 12.2746582 C70.80360589 12.29974698 68.23911883 12.33382586 65.67480469 12.37719727 C61.98094093 12.438093 58.28802549 12.46626764 54.59375 12.48828125 C52.8839093 12.52699089 52.8839093 12.52699089 51.13952637 12.56648254 C44.83666701 12.56868548 40.69858404 12.01957776 35.60021973 8.17424011 C30.33360673 4.30960319 22.20438472 5.40427767 16 6 C13.24528857 7.05468202 11.06091105 8.24394671 8.63671875 9.90625 C7 11 7 11 5 11 C4.16151196 9.54462432 3.32936066 8.08559627 2.5 6.625 C1.80390625 5.40683594 1.80390625 5.40683594 1.09375 4.1640625 C0 2 0 2 0 0 Z " fill="#0434C9" transform="translate(138,65)"/>
<path d="M0 0 C50.82 0 101.64 0 154 0 C153.67 1.32 153.34 2.64 153 4 C102.51 4 52.02 4 0 4 C0 2.68 0 1.36 0 0 Z " fill="#029701" transform="translate(82,157)"/>
<path d="M0 0 C50.82 0 101.64 0 154 0 C153.34 2.31 152.68 4.62 152 7 C151.67 6.34 151.34 5.68 151 5 C77.08 5 3.16 5 -73 5 C-73 4.67 -73 4.34 -73 4 C-63.14620246 3.80923138 -53.29202628 3.64760431 -43.4375 3.5 C-42.64536228 3.48812275 -41.85322456 3.4762455 -41.03708267 3.46400833 C-0.58902558 2.86783422 39.86114129 2.916002 80.3125 2.9375 C81.13407546 2.93792423 81.95565091 2.93834846 82.80212259 2.93878555 C104.20142624 2.95001977 125.60071382 2.97038207 147 3 C147 2.34 147 1.68 147 1 C98.49 1 49.98 1 0 1 C0 0.67 0 0.34 0 0 Z " fill="#B0DAB0" transform="translate(82,161)"/>
<path d="M0 0 C7.88419259 -0.13907345 15.76787217 -0.24565528 23.65298843 -0.31087303 C27.31451005 -0.34217624 30.9751921 -0.38462602 34.63623047 -0.45263672 C38.17003359 -0.5178723 41.70302981 -0.55371366 45.23738861 -0.56926346 C47.24066309 -0.58573229 49.24361317 -0.63256599 51.24639893 -0.67977905 C60.13789989 -0.68307932 60.13789989 -0.68307932 62.73620605 1.37567139 C63.85839844 3.03662109 63.85839844 3.03662109 65 6 C56.67271053 6.02312684 48.34543437 6.04091683 40.01812077 6.05181217 C36.15179882 6.05704026 32.28549879 6.06413654 28.41918945 6.07543945 C24.69096599 6.086271 20.96276366 6.0922774 17.23452568 6.09487724 C15.80910344 6.09673101 14.38368241 6.10035071 12.95826912 6.10573006 C10.96836592 6.11294393 8.97844166 6.11340808 6.98852539 6.11352539 C5.85379288 6.115746 4.71906036 6.11796661 3.54994202 6.12025452 C1 6 1 6 0 5 C-0.04063832 3.33382885 -0.042721 1.66611905 0 0 Z " fill="#21A121" transform="translate(1,139)"/>
<path d="M0 0 C8.66736307 2.43294402 16.17171506 6.65782877 24 11 C24 11.66 24 12.32 24 13 C-19.23 13 -62.46 13 -107 13 C-107 12.34 -107 11.68 -107 11 C-103.61671941 10.23901809 -100.4980742 9.87595839 -97.03288269 9.87974548 C-96.05838165 9.87837082 -95.08388062 9.87699615 -94.07984924 9.87557983 C-93.02249069 9.87917511 -91.96513214 9.88277039 -90.87573242 9.88647461 C-89.75334167 9.88632858 -88.63095093 9.88618256 -87.47454834 9.8860321 C-83.76816875 9.88672824 -80.06183955 9.89450672 -76.35546875 9.90234375 C-73.78428678 9.90420899 -71.21310445 9.90563239 -68.641922 9.90663147 C-62.56824059 9.91005827 -56.49457995 9.91793817 -50.42090636 9.92798096 C-43.50435862 9.93916854 -36.58781001 9.94465921 -29.67125547 9.94967639 C-15.44749396 9.9601215 -1.22374762 9.97770445 13 10 C13 9.34 13 8.68 13 8 C12.01 7.67 11.02 7.34 10 7 C10 6.34 10 5.68 10 5 C8.68 5 7.36 5 6 5 C6 4.34 6 3.68 6 3 C4.02 3 2.04 3 0 3 C0 2.01 0 1.02 0 0 Z " fill="#3D61C3" transform="translate(163,7)"/>
<path d="M0 0 C16.83 0 33.66 0 51 0 C51.495 4.455 51.495 4.455 52 9 C48.4377769 9.11654436 44.87604658 9.1873639 41.3125 9.25 C40.30509766 9.28351563 39.29769531 9.31703125 38.25976562 9.3515625 C30.70603747 9.45128168 30.70603747 9.45128168 26.96875 7.0625 C26.3190625 6.381875 25.669375 5.70125 25 5 C19.53581275 2.57147233 14.14010271 1.87679063 8.48828125 3.8984375 C6.28850937 4.87227686 4.13534919 5.8927819 2 7 C1.34 4.69 0.68 2.38 0 0 Z " fill="#1541CA" transform="translate(187,85)"/>
<path d="M0 0 C13.2 0 26.4 0 40 0 C32.56499932 7.43500068 20.90272869 11.07996462 11 14 C10.59136719 13.26265625 10.18273437 12.5253125 9.76171875 11.765625 C8.00463601 9.00727782 6.17113618 7.00123016 3.8125 4.75 C2.52565806 3.51648665 1.25002474 2.270809 0 1 C0 0.67 0 0.34 0 0 Z " fill="#FAFDFB" transform="translate(145,224)"/>
<path d="M0 0 C1.91091919 -0.36076355 1.91091919 -0.36076355 4.26611328 -0.34057617 C5.14687531 -0.34034958 6.02763733 -0.34012299 6.93508911 -0.33988953 C7.88721283 -0.32440567 8.83933655 -0.30892181 9.8203125 -0.29296875 C10.79410858 -0.28872391 11.76790466 -0.28447906 12.77120972 -0.28010559 C15.88941805 -0.26327786 19.00698617 -0.22561811 22.125 -0.1875 C24.23566777 -0.17245846 26.34634564 -0.15876914 28.45703125 -0.14648438 C33.63826849 -0.11336091 38.81902561 -0.06155051 44 0 C42.02 3.96 40.04 7.92 38 12 C35.00520833 10.47005208 32.01041667 8.94010417 29.015625 7.41015625 C22.18323353 4.21521671 14.36497413 3.70754467 7.09765625 5.859375 C4.69033224 6.83503055 2.34786849 7.89066555 0 9 C-0.99 9.33 -1.98 9.66 -3 10 C-2.25 3.375 -2.25 3.375 0 0 Z " fill="#0C38C5" transform="translate(13,65)"/>
<path d="M0 0 C30.03 0 60.06 0 91 0 C91.99 2.475 91.99 2.475 93 5 C92.34 5 91.68 5 91 5 C90.505 3.515 90.505 3.515 90 2 C60.795 1.505 60.795 1.505 31 1 C31.33 2.32 31.66 3.64 32 5 C33.32 5.33 34.64 5.66 36 6 C35.34 6.33 34.68 6.66 34 7 C33.01 6.67 32.02 6.34 31 6 C22.69401548 5.30285502 15.73178706 5.0410603 8.63671875 9.90625 C7 11 7 11 5 11 C4.16151196 9.54462432 3.32936066 8.08559627 2.5 6.625 C1.80390625 5.40683594 1.80390625 5.40683594 1.09375 4.1640625 C0 2 0 2 0 0 Z " fill="#0936C7" transform="translate(138,65)"/>
<path d="M0 0 C0.99 0.495 0.99 0.495 2 1 C4.10288823 1.10623341 6.2091895 1.1466857 8.31472778 1.15821838 C8.96980501 1.16315636 9.62488224 1.16809434 10.29981029 1.17318195 C12.50472116 1.18859499 14.70960283 1.19692781 16.91455078 1.20532227 C18.49118305 1.21489781 20.06781274 1.22490769 21.6444397 1.23532104 C25.93342418 1.26241132 30.22241971 1.28339852 34.51144266 1.30332303 C38.99046765 1.3251572 43.46945841 1.35255843 47.94845581 1.37937927 C56.43403627 1.42934097 64.91963568 1.47426688 73.40525329 1.51740164 C83.06414693 1.56674433 92.72300624 1.62167345 102.38186669 1.67708123 C122.25454583 1.79095464 142.12725772 1.89778198 162 2 C161.67 3.65 161.34 5.3 161 7 C160.67 6.01 160.34 5.02 160 4 C140.0858213 3.97666547 120.17164535 3.95901809 100.25745583 3.94818783 C91.01147633 3.94302605 81.76550531 3.9359856 72.51953125 3.92456055 C64.46309382 3.9146101 56.40666253 3.90814571 48.35021913 3.90591151 C44.08228379 3.90460501 39.81436603 3.90152302 35.54643631 3.89426994 C31.5328297 3.88750406 27.51924798 3.88538421 23.50563622 3.88689232 C22.02937243 3.88661625 20.55310785 3.88461448 19.07684898 3.88079453 C17.06756562 3.87584851 15.05826903 3.87760451 13.04898071 3.87974548 C11.92254969 3.87882369 10.79611866 3.8779019 9.63555336 3.87695217 C7.02104057 3.820724 7.02104057 3.820724 5 5 C2.61824891 5.06347429 0.26847903 5.06612368 -2.11181641 5.02172852 C-2.84362625 5.01212097 -3.5754361 5.00251343 -4.329422 4.99261475 C-6.75356523 4.95957634 -9.17753095 4.91926258 -11.6015625 4.87890625 C-13.28021617 4.85460986 -14.95887644 4.83076606 -16.63754272 4.80735779 C-21.05993159 4.74446899 -25.48220376 4.67541596 -29.90447998 4.60510254 C-34.41543251 4.53446236 -38.92646789 4.46961958 -43.4375 4.40429688 C-52.29175773 4.27522275 -61.14590305 4.13963994 -70 4 C-70 3.67 -70 3.34 -70 3 C-47.23 3 -24.46 3 -1 3 C-0.67 2.01 -0.34 1.02 0 0 Z " fill="#309F32" transform="translate(75,154)"/>
<path d="M0 0 C0 0.33 0 0.66 0 1 C-29.07052331 2.19002142 -58.10395584 1.95272908 -87.1875 1.5625 C-88.14319004 1.54968616 -89.09888008 1.53687233 -90.08353043 1.5236702 C-102.05588355 1.36195278 -114.02801577 1.18697747 -126 1 C-125.67 1.99 -125.34 2.98 -125 4 C-129.875 2.25 -129.875 2.25 -131 0 C-117.41685476 -0.20190119 -103.83353696 -0.38890548 -90.25 -0.5625 C-89.25434399 -0.57523327 -88.25868797 -0.58796654 -87.23286057 -0.60108566 C-58.13405993 -0.9688722 -29.0851984 -1.17793852 0 0 Z " fill="#44AD46" transform="translate(187,223)"/>
<path d="M0 0 C16.83 0 33.66 0 51 0 C51 2.64 51 5.28 51 8 C46.05 8 41.1 8 36 8 C36.33 7.34 36.66 6.68 37 6 C40.63 6 44.26 6 48 6 C48.33 4.35 48.66 2.7 49 1 C44.74956377 1.09444561 40.49962688 1.20072531 36.24975586 1.31738281 C34.8077782 1.35536771 33.36571558 1.39027024 31.92358398 1.421875 C21.26653374 1.6582879 11.80089839 2.41234543 2 7 C1.34 4.69 0.68 2.38 0 0 Z " fill="#1038BA" transform="translate(187,85)"/>
<path d="M0 0 C40.26 0 80.52 0 122 0 C121.67 0.99 121.34 1.98 121 3 C120.505 2.01 120.505 2.01 120 1 C119.3997787 1.00515373 118.7995574 1.01030746 118.18114758 1.01561737 C103.58433945 1.14094239 88.98753011 1.2661259 74.39071941 1.39115143 C67.33184945 1.45161593 60.27297991 1.51212853 53.21411133 1.57275391 C46.40605072 1.63122507 39.59798899 1.68956281 32.78992653 1.74781799 C30.18832168 1.77010143 27.58671722 1.7924301 24.98511314 1.81480408 C21.35034662 1.84605571 17.71557876 1.87714865 14.08081055 1.90820312 C12.99755997 1.91755386 11.91430939 1.9269046 10.79823303 1.9365387 C9.80965302 1.94495285 8.821073 1.953367 7.80253601 1.96203613 C6.94250316 1.96941048 6.0824703 1.97678482 5.19637585 1.98438263 C3.46428653 1.99669868 1.73213311 2 0 2 C0 1.34 0 0.68 0 0 Z " fill="#2D9C31" transform="translate(104,182)"/>
<path d="M0 0 C30.03 0 60.06 0 91 0 C91.99 2.475 91.99 2.475 93 5 C92.34 5 91.68 5 91 5 C90.505 3.515 90.505 3.515 90 2 C61.29 1.67 32.58 1.34 3 1 C2.67 2.32 2.34 3.64 2 5 C1.34 3.35 0.68 1.7 0 0 Z " fill="#0B35BC" transform="translate(138,65)"/>
<path d="M0 0 C2.02054804 1.64169528 4.02043058 3.30911778 6 5 C6 5.33 6 5.66 6 6 C-22.38 6 -50.76 6 -80 6 C-80 5.67 -80 5.34 -80 5 C-53.6 5 -27.2 5 0 5 C-0.495 3.02 -0.495 3.02 -1 1 C-0.67 0.67 -0.34 0.34 0 0 Z " fill="#F2FDF5" transform="translate(104,184)"/>
<path d="M0 0 C2.62567729 0.28632676 5.25041383 0.57896082 7.875 0.875 C8.60203125 0.95363281 9.3290625 1.03226563 10.078125 1.11328125 C13.97536145 1.55770295 17.73960696 2.14990755 21.5625 3.03125 C28.66698596 4.50612972 35.89808226 4.46565592 43.125 4.625 C44.57293772 4.66327434 46.02085497 4.70233118 47.46875 4.7421875 C50.97897702 4.83713614 54.48936132 4.92153215 58 5 C58 5.33 58 5.66 58 6 C38.01064423 8.57927171 19.36123216 6.17975821 0 1 C0 0.67 0 0.34 0 0 Z " fill="#4FAD4F" transform="translate(82,236)"/>
<path d="M0 0 C6.6 0 13.2 0 20 0 C20 1.65 20 3.3 20 5 C13.73 5 7.46 5 1 5 C0.67 3.35 0.34 1.7 0 0 Z " fill="#0E38C1" transform="translate(221,98)"/>
<path d="M0 0 C25.74 0 51.48 0 78 0 C77.34 1.32 76.68 2.64 76 4 C75.505 2.515 75.505 2.515 75 1 C51.9 1 28.8 1 5 1 C4.67 2.32 4.34 3.64 4 5 C2.68 3.35 1.36 1.7 0 0 Z " fill="#1E951B" transform="translate(128,207)"/>
<path d="M0 0 C1.91091919 -0.36076355 1.91091919 -0.36076355 4.26611328 -0.34057617 C5.14687531 -0.34034958 6.02763733 -0.34012299 6.93508911 -0.33988953 C7.88721283 -0.32440567 8.83933655 -0.30892181 9.8203125 -0.29296875 C10.79410858 -0.28872391 11.76790466 -0.28447906 12.77120972 -0.28010559 C15.88941805 -0.26327786 19.00698617 -0.22561811 22.125 -0.1875 C24.23566777 -0.17245846 26.34634564 -0.15876914 28.45703125 -0.14648438 C33.63824023 -0.11336109 38.81907439 -0.06312151 44 0 C42 2 42 2 38.10107422 2.22705078 C36.41891207 2.22673341 34.73672981 2.21539396 33.0546875 2.1953125 C32.1696756 2.1924826 31.2846637 2.18965271 30.37283325 2.18673706 C27.54008588 2.1755224 24.70765216 2.1504157 21.875 2.125 C19.95703581 2.11497185 18.03906667 2.10584572 16.12109375 2.09765625 C11.41394124 2.07557889 6.70702384 2.04104045 2 2 C1.34 3.32 0.68 4.64 0 6 C0.53625 5.484375 1.0725 4.96875 1.625 4.4375 C4 3 4 3 7.25 3.3125 C8.1575 3.539375 9.065 3.76625 10 4 C7.11980724 5.46652017 4.20691485 6.82047874 1.25 8.125 C0.45078125 8.47820312 -0.3484375 8.83140625 -1.171875 9.1953125 C-1.77515625 9.46085937 -2.3784375 9.72640625 -3 10 C-2.25 3.375 -2.25 3.375 0 0 Z " fill="#0A34BB" transform="translate(13,65)"/>
<path d="M0 0 C1.16781006 0.00523682 2.33562012 0.01047363 3.53881836 0.01586914 C4.79887695 0.0190918 6.05893555 0.02231445 7.35717773 0.02563477 C8.6976732 0.03399136 10.03816799 0.04245632 11.37866211 0.05102539 C12.72306153 0.05603879 14.06746271 0.06060197 15.41186523 0.06469727 C18.71334151 0.07653051 22.01473014 0.09301568 25.31616211 0.11352539 C19.07385442 3.23467924 19.07385442 3.23467924 14.88647461 3.14086914 C14.00862305 3.12862305 13.13077148 3.11637695 12.22631836 3.10375977 C10.37727885 3.0687499 8.52831084 3.02972122 6.67944336 2.98657227 C5.79901367 2.97561523 4.91858398 2.9646582 4.01147461 2.95336914 C3.20726074 2.93653076 2.40304688 2.91969238 1.57446289 2.90234375 C-0.92509222 3.13608593 -2.5271346 3.86239065 -4.68383789 5.11352539 C-3.56320494 0.1507223 -3.56320494 0.1507223 0 0 Z " fill="#0231CB" transform="translate(17.683837890625,65.886474609375)"/>
<path d="M0 0 C0.33 1.32 0.66 2.64 1 4 C16.18 4 31.36 4 47 4 C47 4.33 47 4.66 47 5 C30.83 5 14.66 5 -2 5 C-1 1 -1 1 0 0 Z " fill="#153FBC" transform="translate(24,47)"/>
<path d="M0 0 C4.62 0 9.24 0 14 0 C14.33 1.32 14.66 2.64 15 4 C16.32 4.33 17.64 4.66 19 5 C15.99166904 6.50416548 13.65038422 5.60839737 10.375 5.0625 C9.18648437 4.86785156 7.99796875 4.67320313 6.7734375 4.47265625 C5.85820312 4.31667969 4.94296875 4.16070312 4 4 C4.33 3.34 4.66 2.68 5 2 C3.35 1.67 1.7 1.34 0 1 C0 0.67 0 0.34 0 0 Z " fill="#1F47CB" transform="translate(155,66)"/>
<path d="M0 0 C-0.33 0.66 -0.66 1.32 -1 2 C-4.16902898 3.03602871 -7.27497657 3.87621551 -10.5625 4.4375 C-13.19473059 4.93450803 -13.19473059 4.93450803 -16.0625 6.625 C-19.26301696 8.12311432 -19.82421466 8.02444688 -23 7 C-4.70345278 -1.50923979 -4.70345278 -1.50923979 0 0 Z " fill="#5572CA" transform="translate(89,5)"/>
<path d="M0 0 C0.33 0 0.66 0 1 0 C1 1.65 1 3.3 1 5 C1.53625 4.484375 2.0725 3.96875 2.625 3.4375 C5 2 5 2 8.25 2.3125 C9.1575 2.539375 10.065 2.76625 11 3 C8.11980724 4.46652017 5.20691485 5.82047874 2.25 7.125 C1.45078125 7.47820312 0.6515625 7.83140625 -0.171875 8.1953125 C-0.77515625 8.46085937 -1.3784375 8.72640625 -2 9 C-1.125 2.25 -1.125 2.25 0 0 Z " fill="#274BC3" transform="translate(12,66)"/>
<path d="M0 0 C2.86724686 0.57344937 3.8614515 0.8614515 6 3 C2.535 4.485 2.535 4.485 -1 6 C-1.33 5.01 -1.66 4.02 -2 3 C-1.34 2.01 -0.68 1.02 0 0 Z " fill="#1A42C4" transform="translate(190,86)"/>
<path d="M0 0 C9.59453303 2.89066059 9.59453303 2.89066059 13 6 C12.01 6.33 11.02 6.66 10 7 C10 6.34 10 5.68 10 5 C8.68 5 7.36 5 6 5 C6 4.34 6 3.68 6 3 C4.02 3 2.04 3 0 3 C0 2.01 0 1.02 0 0 Z " fill="#3D5EC6" transform="translate(163,7)"/>
<path d="M0 0 C1.31602523 0.61754259 2.62773556 1.24428742 3.9375 1.875 C4.66839844 2.22304687 5.39929688 2.57109375 6.15234375 2.9296875 C8 4 8 4 9 6 C7.35 6 5.7 6 4 6 C3.34 4.68 2.68 3.36 2 2 C1.34 2 0.68 2 0 2 C0 1.34 0 0.68 0 0 Z " fill="#3A5AC3" transform="translate(177,13)"/>
<path d="M0 0 C4.62 0 9.24 0 14 0 C14 0.33 14 0.66 14 1 C10.37 1 6.74 1 3 1 C2.67 2.32 2.34 3.64 2 5 C1.34 3.35 0.68 1.7 0 0 Z " fill="#133ABC" transform="translate(138,65)"/>
<path d="M0 0 C3.63 0 7.26 0 11 0 C11 0.33 11 0.66 11 1 C9.02 1 7.04 1 5 1 C5.33 1.99 5.66 2.98 6 4 C1.125 2.25 1.125 2.25 0 0 Z " fill="#44A943" transform="translate(56,223)"/>
<path d="M0 0 C3.3 0.66 6.6 1.32 10 2 C8.68 2.99 7.36 3.98 6 5 C2.25 4.1875 2.25 4.1875 -1 3 C-0.67 2.01 -0.34 1.02 0 0 Z " fill="#169616" transform="translate(75,154)"/>
<path d="M0 0 C2.96404505 2.80804268 5.44499019 5.18315774 7 9 C4.625 8.4375 4.625 8.4375 2 7 C0.6875 3.375 0.6875 3.375 0 0 Z " fill="#3F60C1" transform="translate(210,38)"/>
<path d="M0 0 C-0.33 0.66 -0.66 1.32 -1 2 C-3.3140622 2.73075648 -5.64828869 3.40138258 -8 4 C-7.6875 2.0625 -7.6875 2.0625 -7 0 C-3.86650268 -1.04449911 -3.01031744 -0.93423645 0 0 Z " fill="#4063CA" transform="translate(89,5)"/>
</svg>
